<?xml version="1.0" standalone="no"?>
<!DOCTYPE svg PUBLIC "-//W3C//DTD SVG 20010904//EN"
 "http://www.w3.org/TR/2001/REC-SVG-20010904/DTD/svg10.dtd">
<svg version="1.0" xmlns="http://www.w3.org/2000/svg"
 width="1000.000000pt" height="1000.000000pt" viewBox="0 0 1000.000000 1000.000000"
 preserveAspectRatio="xMidYMid meet">
<metadata>
Created by potrace 1.14, written by Peter Selinger 2001-2017
</metadata>
<g transform="translate(0.000000,1000.000000) scale(0.100000,-0.100000)"
fill="#000000" stroke="none">
<path d="M0 5000 l0 -5000 5000 0 5000 0 0 5000 0 5000 -5000 0 -5000 0 0
-5000z m5595 3976 c1518 -165 2836 -1172 3398 -2596 155 -393 244 -777 278
-1204 15 -188 6 -623 -15 -801 -111 -899 -492 -1715 -1102 -2357 -679 -716
-1537 -1149 -2529 -1275 -199 -26 -771 -26 -965 0 -513 67 -931 192 -1364 409
-421 211 -740 441 -1082 783 -330 330 -565 653 -773 1065 -494 978 -576 2132
-225 3178 276 822 818 1552 1525 2055 594 421 1266 673 1999 747 220 23 628
21 855 -4z"/>
<path d="M5361 7756 c-7 -8 -9 -21 -5 -27 4 -7 3 -9 -3 -6 -6 4 -14 0 -17 -9
-3 -8 -2 -13 3 -10 5 4 7 -12 5 -34 -2 -25 0 -39 6 -35 6 3 7 -1 4 -9 -3 -9
-2 -16 4 -16 6 0 12 5 14 11 2 7 10 4 18 -7 9 -11 10 -15 3 -10 -7 4 -19 4
-25 -1 -7 -4 -17 -8 -23 -8 -6 0 -9 -29 -8 -70 2 -64 1 -67 -8 -30 -13 54 -16
114 -5 112 5 -1 10 3 13 10 6 17 -28 9 -38 -10 -12 -20 -7 -80 6 -89 6 -5 5
-8 -2 -8 -8 0 -13 -14 -13 -35 0 -23 5 -35 14 -35 14 0 27 -22 25 -43 0 -7 -4
-2 -10 11 -5 13 -13 21 -18 18 -5 -4 -4 -16 2 -30 7 -13 15 -22 19 -20 5 3 8
2 9 -3 0 -4 2 -19 3 -33 2 -14 -2 -36 -8 -49 -8 -19 -8 -25 2 -29 6 -2 12 -13
12 -25 1 -50 42 -60 66 -16 10 17 13 19 14 7 0 -9 3 -23 6 -32 5 -13 0 -15
-25 -12 -38 4 -45 -5 -26 -30 15 -18 15 -18 9 1 -6 20 -5 20 10 0 9 -10 15
-24 13 -30 -3 -9 49 -55 62 -55 3 0 -3 7 -13 15 -16 12 -17 15 -4 15 16 0 47
-30 32 -30 -5 0 6 -8 25 -17 26 -13 36 -14 39 -5 5 16 20 15 38 -2 18 -19 18
-32 0 -16 -11 8 -20 9 -33 1 -17 -10 -17 -10 1 -11 11 0 28 -7 38 -16 14 -14
20 -14 33 -4 9 7 18 10 22 6 3 -3 2 -6 -4 -6 -6 0 -13 -7 -16 -14 -4 -11 -1
-13 10 -9 11 4 14 2 9 -5 -4 -7 -2 -12 3 -12 7 0 9 16 6 42 -6 45 -15 63 -16
32 0 -18 -1 -18 -8 1 -5 11 -4 25 2 33 7 9 6 11 -8 6 -13 -5 -16 -4 -11 4 10
16 -12 54 -26 46 -7 -5 -9 -2 -5 8 3 10 -3 23 -16 34 -12 10 -16 12 -9 4 6 -8
12 -21 12 -29 -1 -13 -3 -13 -11 2 -6 9 -14 15 -19 12 -14 -8 -23 14 -11 28 7
9 5 16 -10 25 -14 9 -17 17 -11 30 5 9 8 22 5 28 -2 6 3 11 11 11 8 0 13 -4
10 -9 -3 -4 5 -8 18 -9 13 0 17 -3 10 -6 -6 -2 -9 -9 -6 -14 3 -6 12 -5 22 3
13 11 14 11 8 -1 -7 -10 -4 -12 12 -7 13 4 22 1 26 -9 3 -8 10 -15 16 -15 6 0
8 5 4 12 -5 8 -2 9 10 5 10 -4 20 -7 22 -7 3 0 2 -4 -1 -10 -6 -10 7 -14 33
-11 6 1 12 -3 12 -10 0 -7 4 -8 13 -2 12 9 57 15 57 8 0 -2 -10 -9 -21 -16
-15 -8 -19 -8 -15 0 4 6 2 11 -4 11 -14 0 -9 -21 5 -23 6 0 18 -11 28 -24 10
-13 25 -23 33 -23 8 0 17 -7 20 -15 4 -8 13 -15 21 -15 9 0 13 -6 9 -15 -3 -9
4 -21 19 -31 14 -9 22 -21 18 -28 -3 -6 -3 -8 1 -4 10 9 52 -29 43 -39 -4 -3
-7 -1 -7 5 0 7 -5 12 -10 12 -17 0 5 -33 24 -36 9 -1 16 2 16 7 0 6 8 5 20 -1
21 -11 27 -30 9 -30 -5 0 -7 4 -4 10 4 6 -5 9 -19 8 -33 -3 -33 -16 -1 -28 14
-5 25 -15 25 -22 0 -10 -2 -10 -9 1 -6 9 -11 10 -15 2 -4 -6 -2 -11 4 -11 6 0
9 -4 6 -9 -8 -12 14 -72 32 -90 12 -12 13 1 8 95 -3 60 -6 124 -6 142 0 20 -4
31 -10 27 -6 -4 -8 -9 -6 -13 5 -9 -20 -32 -28 -25 -9 10 -7 25 3 19 4 -3 13
6 19 19 13 28 -1 81 -18 70 -6 -3 -7 1 -4 10 4 10 2 15 -6 13 -7 -2 -15 3 -18
11 -3 8 0 11 7 7 14 -9 14 -6 -4 37 -16 39 -62 87 -83 87 -7 0 -10 5 -7 10 4
6 3 10 -2 9 -4 -1 -10 0 -13 1 -3 1 -18 3 -35 5 -24 4 -26 3 -10 -5 17 -7 17
-9 3 -9 -9 -1 -21 -8 -26 -16 -7 -13 -10 -11 -20 10 -7 15 -9 24 -4 21 4 -2
14 0 22 5 13 8 13 10 0 19 -13 9 -13 10 0 10 9 1 6 5 -7 10 -13 5 -23 14 -23
20 0 6 -5 8 -11 5 -5 -4 -20 4 -32 17 -12 13 -30 22 -41 20 -14 -3 -17 0 -13
12 8 21 -20 35 -60 29 -19 -3 -40 1 -52 9 -18 13 -19 17 -7 40 13 25 11 28
-34 73 -34 33 -50 43 -55 34 -5 -8 -4 -10 3 -5 8 5 10 1 6 -9 -5 -12 -2 -16
11 -13 10 2 20 -3 22 -10 3 -7 -1 -10 -10 -6 -24 9 -29 -13 -12 -48 9 -19 10
-26 3 -17 -7 9 -19 14 -25 12 -16 -6 -17 11 -3 38 7 12 7 25 1 37 -5 10 -6 24
0 33 6 12 3 22 -11 34 -24 21 -27 13 -4 -9 8 -9 11 -16 5 -16 -5 0 -17 10 -25
22 -12 17 -13 24 -3 30 7 5 -1 6 -18 3 -25 -5 -27 -4 -12 5 18 12 22 37 8 58
-6 10 -10 10 -20 -2z m47 -118 c9 -11 11 -18 4 -18 -13 0 -32 32 -31 52 0 9 2
8 6 -2 3 -8 12 -23 21 -32z m-54 -93 c5 -22 4 -26 -4 -15 -5 8 -10 24 -10 34
0 26 6 18 14 -19z m167 6 c16 -15 17 -20 6 -24 -9 -3 -19 4 -26 19 -13 29 -7
30 20 5z m-27 -23 c-4 -6 -10 -5 -15 3 -14 22 -10 33 6 19 8 -7 12 -17 9 -22z
m-187 -70 c-3 -8 -6 -5 -6 6 -1 11 2 17 5 13 3 -3 4 -12 1 -19z m239 -15 c-7
-7 -26 7 -26 19 0 6 6 6 15 -2 9 -7 13 -15 11 -17z m78 5 c-5 -8 -1 -9 12 -4
14 5 16 4 7 -5 -6 -6 -16 -8 -22 -5 -14 9 -14 26 0 26 5 0 7 -5 3 -12z m-257
-53 c-13 -44 -25 -37 -21 12 3 49 2 47 18 34 11 -9 12 -19 3 -46z m50 -32 c-3
-10 -5 -2 -5 17 0 19 2 27 5 18 2 -10 2 -26 0 -35z m297 5 c-7 -11 -7 -11 -24
22 -13 25 -13 25 8 6 12 -10 19 -23 16 -28z m41 -8 c3 -5 2 -10 -4 -10 -5 0
-13 5 -16 10 -3 6 -2 10 4 10 5 0 13 -4 16 -10z m-60 -20 c3 -6 -1 -13 -10
-16 -19 -8 -30 0 -20 15 8 14 22 14 30 1z m-295 -55 c0 -22 -13 -25 -33 -8
-19 17 -19 17 -12 -7 7 -24 6 -24 -8 -6 -13 17 -12 22 7 42 19 20 22 20 34 6
6 -9 12 -21 12 -27z m330 6 c0 -5 -7 -12 -16 -15 -22 -9 -24 -8 -24 9 0 8 9
15 20 15 11 0 20 -4 20 -9z m128 -20 c4 -26 46 -56 68 -47 12 4 15 2 10 -9 -3
-8 -1 -15 4 -15 5 0 6 -8 3 -17 -6 -15 -8 -14 -16 5 -6 12 -18 22 -27 22 -20
0 -41 23 -58 63 -10 23 -10 28 0 25 7 -3 14 -14 16 -27z m-367 -24 c-8 -8 -11
-7 -11 4 0 9 3 19 7 23 4 4 9 2 11 -4 3 -7 -1 -17 -7 -23z m114 23 c-3 -5 -12
-10 -18 -10 -7 0 -6 4 3 10 19 12 23 12 15 0z m75 0 c0 -5 -15 -9 -32 -9 l-33
1 30 8 c17 4 31 8 33 9 1 0 2 -3 2 -9z m235 -28 c-6 -8 -35 12 -35 24 0 11 4
10 18 -3 10 -10 18 -19 17 -21z m-195 8 c0 -5 -7 -7 -15 -4 -8 4 -15 8 -15 10
0 2 7 4 15 4 8 0 15 -4 15 -10z m-43 -6 c-3 -3 -12 -4 -19 -1 -8 3 -5 6 6 6
11 1 17 -2 13 -5z m80 -19 c0 -11 -4 -12 -14 -4 -7 6 -13 13 -13 15 0 2 6 4
13 4 8 0 14 -7 14 -15z m-267 -11 c0 -8 -5 -12 -10 -9 -6 4 -8 11 -5 16 9 14
15 11 15 -7z m375 -13 c-6 -5 -25 10 -25 20 0 5 6 4 14 -3 8 -7 12 -15 11 -17z
m-52 -18 c-5 -13 -2 -15 11 -10 11 4 15 3 10 -4 -4 -6 -1 -15 6 -19 8 -5 5 -9
-9 -13 -12 -3 -24 -1 -27 4 -3 5 0 9 6 9 6 0 9 4 5 10 -3 5 -12 7 -20 3 -18
-6 -19 3 -2 22 17 20 28 19 20 -2z m-390 -35 c13 -21 14 -29 4 -34 -6 -4 -9
-4 -5 1 4 4 1 17 -7 29 -8 11 -15 25 -15 30 0 11 0 11 23 -26z m53 0 c4 -5 -4
-8 -17 -6 -12 1 -24 8 -26 15 -5 14 34 6 43 -9z m484 -42 c0 -12 -11 -30 -25
-40 -23 -18 -24 -20 -7 -32 9 -7 13 -14 8 -14 -19 0 -45 32 -38 48 5 15 4 16
-13 2 -11 -9 -16 -10 -11 -3 4 7 17 18 28 24 18 10 20 9 15 -5 -4 -9 -2 -16 4
-16 5 0 13 10 18 23 9 23 5 41 -8 33 -3 -3 -7 4 -7 14 0 18 2 18 18 3 10 -9
18 -26 18 -37z m-420 29 c-7 -9 -15 -13 -19 -10 -3 3 1 10 9 15 21 14 24 12
10 -5z m340 -12 c10 10 11 9 5 -2 -6 -11 -4 -13 8 -8 23 9 21 0 -2 -13 -15 -7
-24 -5 -43 11 -20 18 -21 19 -2 10 15 -7 25 -7 34 2z m-383 -9 c-3 -3 -12 -4
-19 -1 -8 3 -5 6 6 6 11 1 17 -2 13 -5z m19 -24 c0 -23 -11 -27 -19 -6 -3 8
-1 17 6 20 7 2 12 5 12 5 1 1 1 -8 1 -19z m458 -109 c-6 -6 -24 19 -24 34 1 6
7 1 15 -9 8 -11 12 -22 9 -25z m46 -90 c0 -10 -7 -21 -15 -24 -12 -5 -12 -2
-3 18 13 30 18 31 18 6z m-3 -63 c-3 -8 -6 -5 -6 6 -1 11 2 17 5 13 3 -3 4
-12 1 -19z"/>
<path d="M5314 7659 c-3 -6 -1 -16 5 -22 8 -8 11 -5 11 11 0 24 -5 28 -16 11z"/>
<path d="M5546 7512 c-4 -7 -3 -19 4 -27 14 -17 50 -20 50 -5 0 6 -3 9 -7 9
-21 -3 -32 3 -35 19 -3 13 -5 14 -12 4z"/>
<path d="M4530 7386 c-245 -117 -417 -166 -522 -150 l-41 7 19 -34 c10 -19 53
-68 94 -110 81 -82 157 -126 265 -154 62 -16 206 -21 240 -9 16 6 229 120 244
131 13 9 -28 34 -75 44 -45 10 -68 9 -136 -4 -45 -9 -84 -14 -87 -11 -3 2 25
33 61 68 133 131 297 175 501 136 37 -7 71 -10 74 -7 16 16 -15 41 -109 86
-119 58 -204 81 -303 81 -67 0 -78 -4 -225 -74z"/>
<path d="M5291 7370 c1 -32 11 -54 27 -57 17 -4 15 14 -3 21 -21 8 -19 27 3
20 13 -5 14 -4 3 4 -7 5 -17 16 -22 23 -6 10 -9 7 -8 -11z"/>
<path d="M5800 7340 c0 -5 5 -10 11 -10 5 0 7 5 4 10 -3 6 -8 10 -11 10 -2 0
-4 -4 -4 -10z"/>
<path d="M4875 7293 c-16 -2 -54 -11 -84 -19 -68 -19 -56 -35 30 -40 35 -2 96
-13 137 -25 48 -13 78 -17 84 -11 14 14 -5 23 -82 43 -84 22 -36 25 72 4 74
-14 108 -12 108 5 0 24 -187 54 -265 43z m-78 -39 c-3 -3 -12 -4 -19 -1 -8 3
-5 6 6 6 11 1 17 -2 13 -5z"/>
<path d="M5525 7240 c3 -5 8 -10 11 -10 2 0 4 5 4 10 0 6 -5 10 -11 10 -5 0
-7 -4 -4 -10z"/>
<path d="M4775 7214 c17 -3 58 -14 93 -25 73 -24 105 -19 47 7 -22 9 -69 19
-105 20 -36 1 -51 0 -35 -2z"/>
<path d="M5842 7037 c10 -8 14 -18 10 -22 -4 -5 -1 -5 6 -1 17 10 15 14 -10
26 -21 10 -21 10 -6 -3z"/>
<path d="M5771 7024 c0 -11 3 -14 6 -6 3 7 2 16 -1 19 -3 4 -6 -2 -5 -13z"/>
<path d="M5810 7026 c0 -18 22 -56 32 -55 10 0 10 2 1 6 -7 2 -13 13 -13 23 0
10 -4 22 -10 25 -5 3 -10 4 -10 1z"/>
<path d="M5868 7005 c-8 -8 3 -55 13 -55 5 0 9 -8 10 -17 0 -15 2 -15 9 2 5
14 2 26 -11 41 -11 11 -16 24 -12 27 3 4 4 7 1 7 -2 0 -7 -2 -10 -5z"/>
<path d="M5780 6955 c0 -8 5 -15 10 -15 6 0 10 7 10 15 0 8 -4 15 -10 15 -5 0
-10 -7 -10 -15z"/>
<path d="M5830 6956 c0 -3 5 -17 11 -33 7 -15 12 -38 13 -50 1 -13 7 -28 13
-34 8 -8 10 -4 8 17 -11 82 -18 104 -36 104 -5 0 -9 -2 -9 -4z"/>
<path d="M5910 6933 c0 -6 -3 -20 -6 -30 -4 -13 -3 -14 4 -5 7 11 11 10 16 -4
4 -11 2 -20 -3 -22 -6 -2 -9 -8 -5 -13 3 -5 7 -18 9 -30 5 -24 23 -49 36 -49
5 0 7 6 5 13 -3 6 -7 25 -10 40 -4 17 -11 25 -18 21 -7 -5 -9 -2 -5 9 3 9 0
31 -8 49 -8 18 -14 28 -15 21z m40 -118 c0 -8 -2 -15 -4 -15 -2 0 -6 7 -10 15
-3 8 -1 15 4 15 6 0 10 -7 10 -15z"/>
<path d="M4219 6801 c-106 -61 -213 -157 -270 -243 -35 -53 -45 -102 -59 -294
-15 -218 -56 -374 -125 -478 l-19 -29 70 6 c175 14 344 116 444 267 42 63 52
106 56 257 3 121 1 131 -14 126 -52 -18 -113 -111 -133 -203 -6 -28 -15 -48
-20 -45 -4 3 -18 36 -29 73 -22 70 -29 188 -15 252 19 89 79 201 153 282 18
20 31 42 27 48 -8 13 -12 12 -66 -19z"/>
<path d="M4271 6738 c-69 -67 -130 -173 -145 -249 -6 -27 2 -18 34 40 23 41
68 105 101 143 54 63 72 98 51 98 -5 0 -23 -15 -41 -32z"/>
<path d="M4242 6617 c-46 -50 -119 -173 -109 -184 3 -2 13 12 23 33 10 20 51
72 91 115 40 43 73 81 73 84 0 19 -34 -3 -78 -48z"/>
<path d="M4221 6521 c-22 -22 -45 -50 -52 -63 -7 -13 12 1 41 30 29 28 57 52
62 52 4 0 8 5 8 10 0 20 -21 9 -59 -29z"/>
<path d="M4317 5823 c-14 -22 37 -162 82 -227 16 -22 47 -58 69 -79 52 -51 60
-30 21 52 -16 34 -36 88 -43 120 -15 65 -22 81 -37 81 -15 0 -10 -50 11 -110
10 -30 17 -56 15 -58 -4 -4 -61 135 -70 170 -8 30 -40 64 -48 51z"/>
<path d="M4244 5809 c-10 -17 5 -195 23 -269 18 -74 64 -173 96 -209 12 -13
73 -57 135 -98 218 -145 375 -297 397 -386 9 -35 16 -34 39 6 29 50 56 135 67
211 20 142 -39 341 -124 424 -23 21 -73 58 -112 80 -38 23 -83 50 -100 61 -39
27 -45 26 -45 -7 0 -56 32 -123 86 -182 30 -32 54 -60 54 -63 0 -6 -83 10
-130 24 -19 6 -54 22 -78 36 l-43 24 22 18 c19 15 20 21 10 40 -7 12 -20 54
-30 93 -20 80 -43 106 -30 36 11 -67 28 -115 44 -128 18 -15 20 -34 3 -24 -6
4 -8 3 -5 -3 4 -6 -1 -14 -10 -17 -23 -9 -110 78 -157 157 -19 34 -45 89 -57
124 -20 60 -39 78 -55 52z"/>
<path d="M5648 5636 c-155 -82 -184 -98 -192 -106 -16 -16 60 -40 126 -40 35
0 87 7 115 14 29 8 55 10 58 6 3 -5 -24 -38 -60 -74 -125 -125 -278 -173 -461
-145 -112 17 -109 17 -109 0 0 -20 123 -86 220 -117 60 -20 102 -27 170 -28
l90 -1 130 64 c242 118 355 155 482 156 l91 0 -16 30 c-10 17 -51 64 -92 105
-115 115 -246 170 -408 170 -72 0 -87 -4 -144 -34z"/>
<path d="M5346 5421 c18 -17 105 -41 147 -40 l42 1 -53 9 c-29 5 -69 16 -88
24 -41 17 -63 20 -48 6z"/>
<path d="M5240 5401 c0 -5 5 -13 12 -17 22 -14 134 -33 188 -33 l55 1 -65 12
c-36 7 -81 17 -100 23 -61 19 -90 24 -90 14z"/>
<path d="M5150 5351 c0 -32 281 -51 340 -23 21 10 16 11 -35 6 -35 -3 -100 1
-157 10 -112 18 -148 20 -148 7z"/>
<path d="M6390 4618 c-19 -5 -53 -14 -75 -20 -82 -23 -294 -111 -395 -165
-120 -63 -263 -160 -359 -243 -153 -133 -334 -341 -314 -361 5 -5 41 -9 78 -7
l69 3 52 73 c117 165 287 339 433 442 134 95 370 213 529 265 28 9 52 18 52
21 0 6 -31 3 -70 -8z"/>
<path d="M5260 4359 c0 -16 163 -189 178 -189 14 0 92 59 92 70 0 4 -25 34
-56 68 l-56 62 -79 0 c-50 0 -79 -4 -79 -11z"/>
<path d="M3303 4352 c-7 -4 -40 -68 -74 -142 -34 -74 -88 -192 -120 -263 -33
-70 -59 -132 -59 -138 0 -6 28 -9 71 -7 78 3 76 1 110 81 l20 48 136 -3 136
-3 21 -60 21 -60 64 -3 c106 -5 116 -51 -80 390 -21 48 -48 106 -59 128 l-20
40 -78 0 c-42 0 -82 -4 -89 -8z m108 -148 c9 -27 29 -75 43 -107 15 -33 25
-65 22 -73 -4 -10 -26 -14 -88 -14 -46 0 -88 4 -95 8 -14 9 75 244 91 239 5
-2 17 -25 27 -53z"/>
<path d="M3767 4353 c-9 -8 -9 -332 0 -452 l6 -92 61 3 61 3 5 104 5 104 225
4 c126 2 234 8 245 14 11 5 31 26 45 46 21 30 25 48 25 104 0 75 -16 106 -75
147 -32 22 -39 22 -315 22 -155 0 -285 -3 -288 -7z m579 -105 c19 -36 15 -112
-8 -134 -20 -20 -426 -23 -439 -3 -10 16 -12 152 -2 162 3 4 102 7 219 7 l213
0 17 -32z"/>
<path d="M4522 4351 c-8 -5 -12 -23 -10 -47 l3 -39 340 0 340 0 3 39 c2 24 -2
42 -10 47 -7 5 -157 9 -333 9 -176 0 -326 -4 -333 -9z"/>
<path d="M6247 4259 c-7 -27 -8 -315 -1 -334 5 -12 32 -15 149 -15 151 0 176
5 213 39 32 31 31 99 -4 140 -20 24 -23 34 -15 50 15 27 14 83 -2 105 -19 26
-78 35 -213 36 -115 0 -122 -1 -127 -21z m294 -29 c13 -8 19 -21 19 -46 0 -46
-23 -54 -161 -54 l-109 0 0 55 0 55 116 0 c63 0 124 -5 135 -10z m33 -162 c24
-33 20 -75 -9 -104 -24 -24 -28 -25 -147 -22 l-123 3 -3 73 -3 72 135 0 c128
0 136 -1 150 -22z"/>
<path d="M6758 4274 c-5 -4 -8 -88 -8 -186 0 -170 1 -178 20 -178 17 0 19 8
22 78 l3 77 122 5 c103 5 126 9 150 26 34 26 51 83 35 118 -23 51 -55 61 -202
64 -74 2 -138 0 -142 -4z m284 -47 c31 -24 33 -63 4 -92 -25 -25 -29 -26 -138
-23 l-113 3 -3 49 c-2 27 -1 55 2 62 7 19 223 19 248 1z"/>
<path d="M7210 4095 c0 -172 1 -186 18 -183 15 3 17 19 20 141 1 75 6 137 10
137 4 0 41 -45 81 -101 54 -73 77 -97 85 -89 6 6 40 50 76 97 36 48 71 89 78
91 9 3 12 -29 12 -137 0 -135 1 -141 20 -141 20 0 20 5 18 183 -4 230 -6 231
-122 70 -45 -62 -85 -111 -89 -110 -5 1 -45 52 -90 112 -45 61 -90 111 -99
113 -17 3 -18 -11 -18 -183z"/>
<path d="M4697 4162 l-187 -2 2 -173 3 -172 334 -3 c184 -1 339 2 343 6 10 10
14 69 5 78 -3 3 -127 5 -276 4 l-270 -1 -6 23 c-3 13 -5 57 -3 98 l3 75 150 5
150 5 3 28 c2 17 -2 27 -10 28 -35 4 -66 4 -241 1z"/>
<path d="M5646 4040 c-20 -22 -36 -46 -36 -53 0 -7 35 -50 78 -95 l77 -82 72
0 c39 0 75 5 78 10 6 9 -211 256 -226 259 -4 1 -23 -17 -43 -39z"/>
</g>
</svg>
